<?xml version="1.0" encoding="iso-8859-1"?>
<!-- Generator: Adobe Illustrator 19.0.0, SVG Export Plug-In . SVG Version: 6.00 Build 0)  -->
<svg version="1.1" id="Capa_1" xmlns="http://www.w3.org/2000/svg" xmlns:xlink="http://www.w3.org/1999/xlink" x="0px" y="0px"
	 viewBox="0 0 489.923 489.923" style="enable-background:new 0 0 489.923 489.923;" xml:space="preserve">
<g>
	<g>
		<g>
			<rect x="169.229" y="0.011" width="151.6" height="43.5"/>
			<ellipse cx="203.029" cy="304.011" rx="15.9" ry="16.3"/>
			<ellipse cx="267.929" cy="249.211" rx="14" ry="14.4"/>
			<ellipse cx="245.029" cy="137.211" rx="14" ry="14.4"/>
			<g>
				<path d="M316.929,227.011c-2.3-2.7-3.5-5.8-3.5-9.3v-154.7h-19v154.7c0,8.2,2.7,15.9,7.8,22.2l82.8,101h-280l82.8-101.4
					c5.1-6.2,7.8-14,7.8-22.2v-154.3h-19v154.7c0,3.5-1.2,7-3.5,9.3l-164.6,201.6c-20,24.5-2.6,61.3,29.1,61.3l414.7-0.1
					c31.7,0,49.1-36.9,29-61.4L316.929,227.011z"/>
			</g>
		</g>
	</g>
</g>
<g>
</g>
<g>
</g>
<g>
</g>
<g>
</g>
<g>
</g>
<g>
</g>
<g>
</g>
<g>
</g>
<g>
</g>
<g>
</g>
<g>
</g>
<g>
</g>
<g>
</g>
<g>
</g>
<g>
</g>
</svg>
