<?xml version="1.0" encoding="utf-8" ?>
<svg baseProfile="full" height="900px" version="1.1" viewBox="-100 -100 200 200" width="900px" xmlns="http://www.w3.org/2000/svg" xmlns:ev="http://www.w3.org/2001/xml-events" xmlns:xlink="http://www.w3.org/1999/xlink">
  <defs/>
  <circle cx="42.33022881684166" cy="-3.703389587402337" id="node3" r="3"/>
  <circle cx="42.348119893802206" cy="-3.7066511535644464" id="node0" r="3"/>
  <circle cx="42.33435309807479" cy="-3.6910728836059503" id="node5" r="3"/>
  <circle cx="42.340221801246116" cy="-3.7060503387451105" id="node4" r="3"/>
  <circle cx="42.33441654644295" cy="-3.7115864181518488" id="node2" r="3"/>
  <circle cx="42.33879432926176" cy="-3.695021095275872" id="node1" r="3"/>
  <line id="line9" stroke="#000" stroke-width="1" x1="42.33022881684166" x2="42.33435309807479" y1="-3.703389587402337" y2="-3.6910728836059503"/>
  <line id="line5" stroke="#000" stroke-width="1" x1="42.33022881684166" x2="42.340221801246116" y1="-3.703389587402337" y2="-3.7060503387451105"/>
  <line id="line7" stroke="#000" stroke-width="1" x1="42.33022881684166" x2="42.348119893802206" y1="-3.703389587402337" y2="-3.7066511535644464"/>
  <line id="line9" stroke="#000" stroke-width="1" x1="42.33022881684166" x2="42.33441654644295" y1="-3.703389587402337" y2="-3.7115864181518488"/>
  <line id="line4" stroke="#000" stroke-width="1" x1="42.33022881684166" x2="42.33879432926176" y1="-3.703389587402337" y2="-3.695021095275872"/>
  <line id="line11" stroke="#000" stroke-width="1" x1="42.348119893802206" x2="42.340221801246116" y1="-3.7066511535644464" y2="-3.7060503387451105"/>
  <line id="line6" stroke="#000" stroke-width="1" x1="42.348119893802206" x2="42.33879432926176" y1="-3.7066511535644464" y2="-3.695021095275872"/>
  <line id="line9" stroke="#000" stroke-width="1" x1="42.348119893802206" x2="42.33441654644295" y1="-3.7066511535644464" y2="-3.7115864181518488"/>
  <line id="line5" stroke="#000" stroke-width="1" x1="42.348119893802206" x2="42.33435309807479" y1="-3.7066511535644464" y2="-3.6910728836059503"/>
  <line id="line3" stroke="#000" stroke-width="1" x1="42.33435309807479" x2="42.340221801246116" y1="-3.6910728836059503" y2="-3.7060503387451105"/>
  <line id="line3" stroke="#000" stroke-width="1" x1="42.33435309807479" x2="42.33441654644295" y1="-3.6910728836059503" y2="-3.7115864181518488"/>
  <line id="line8" stroke="#000" stroke-width="1" x1="42.33435309807479" x2="42.33879432926176" y1="-3.6910728836059503" y2="-3.695021095275872"/>
  <line id="line8" stroke="#000" stroke-width="1" x1="42.340221801246116" x2="42.33879432926176" y1="-3.7060503387451105" y2="-3.695021095275872"/>
  <line id="line13" stroke="#000" stroke-width="1" x1="42.340221801246116" x2="42.33441654644295" y1="-3.7060503387451105" y2="-3.7115864181518488"/>
  <line id="line10" stroke="#000" stroke-width="1" x1="42.33441654644295" x2="42.33879432926176" y1="-3.7115864181518488" y2="-3.695021095275872"/>
</svg>
