<?xml version="1.0" encoding="utf-8" standalone="no"?>
<!DOCTYPE svg PUBLIC "-//W3C//DTD SVG 1.1//EN"
  "http://www.w3.org/Graphics/SVG/1.1/DTD/svg11.dtd">
<!-- Created with matplotlib (https://matplotlib.org/) -->
<svg height="720pt" version="1.1" viewBox="0 0 720 720" width="720pt" xmlns="http://www.w3.org/2000/svg" xmlns:xlink="http://www.w3.org/1999/xlink">
 <defs>
  <style type="text/css">
*{stroke-linecap:butt;stroke-linejoin:round;}
  </style>
 </defs>
 <g id="figure_1">
  <g id="patch_1">
   <path d="M 0 720 
L 720 720 
L 720 0 
L 0 0 
z
" style="fill:#ffffff;"/>
  </g>
  <g id="axes_1">
   <g id="LineCollection_1">
    <path clip-path="url(#p9bf159a84e)" d="M 310.360063 361.298896 
L 337.743278 212.110682 
" style="fill:none;stroke:#000000;"/>
    <path clip-path="url(#p9bf159a84e)" d="M 310.360063 361.298896 
L 461.87012 338.287861 
" style="fill:none;stroke:#000000;"/>
    <path clip-path="url(#p9bf159a84e)" d="M 310.360063 361.298896 
L 448.180495 506.651938 
" style="fill:none;stroke:#000000;"/>
    <path clip-path="url(#p9bf159a84e)" d="M 310.360063 361.298896 
L 348.551166 422.956199 
" style="fill:none;stroke:#000000;"/>
    <path clip-path="url(#p9bf159a84e)" d="M 337.743278 212.110682 
L 348.551166 422.956199 
" style="fill:none;stroke:#000000;"/>
    <path clip-path="url(#p9bf159a84e)" d="M 276.12988 515.089318 
L 461.87012 338.287861 
" style="fill:none;stroke:#000000;"/>
    <path clip-path="url(#p9bf159a84e)" d="M 276.12988 515.089318 
L 448.180495 506.651938 
" style="fill:none;stroke:#000000;"/>
    <path clip-path="url(#p9bf159a84e)" d="M 276.12988 515.089318 
L 348.551166 422.956199 
" style="fill:none;stroke:#000000;"/>
    <path clip-path="url(#p9bf159a84e)" d="M 461.87012 338.287861 
L 348.551166 422.956199 
" style="fill:none;stroke:#000000;"/>
    <path clip-path="url(#p9bf159a84e)" d="M 448.180495 506.651938 
L 348.551166 422.956199 
" style="fill:none;stroke:#000000;"/>
   </g>
   <g id="PathCollection_1">
    <defs>
     <path d="M 0 8.660254 
C 2.296726 8.660254 4.499694 7.747755 6.123724 6.123724 
C 7.747755 4.499694 8.660254 2.296726 8.660254 0 
C 8.660254 -2.296726 7.747755 -4.499694 6.123724 -6.123724 
C 4.499694 -7.747755 2.296726 -8.660254 0 -8.660254 
C -2.296726 -8.660254 -4.499694 -7.747755 -6.123724 -6.123724 
C -7.747755 -4.499694 -8.660254 -2.296726 -8.660254 0 
C -8.660254 2.296726 -7.747755 4.499694 -6.123724 6.123724 
C -4.499694 7.747755 -2.296726 8.660254 0 8.660254 
z
" id="m5c17020241" style="stroke:#1f78b4;"/>
    </defs>
    <g clip-path="url(#p9bf159a84e)">
     <use style="fill:#1f78b4;stroke:#1f78b4;" x="310.360063" xlink:href="#m5c17020241" y="361.298896"/>
     <use style="fill:#1f78b4;stroke:#1f78b4;" x="337.743278" xlink:href="#m5c17020241" y="212.110682"/>
     <use style="fill:#1f78b4;stroke:#1f78b4;" x="276.12988" xlink:href="#m5c17020241" y="515.089318"/>
     <use style="fill:#1f78b4;stroke:#1f78b4;" x="461.87012" xlink:href="#m5c17020241" y="338.287861"/>
     <use style="fill:#1f78b4;stroke:#1f78b4;" x="448.180495" xlink:href="#m5c17020241" y="506.651938"/>
     <use style="fill:#1f78b4;stroke:#1f78b4;" x="348.551166" xlink:href="#m5c17020241" y="422.956199"/>
    </g>
   </g>
  </g>
 </g>
 <defs>
  <clipPath id="p9bf159a84e">
   <rect height="554.4" width="558" x="90" y="86.4"/>
  </clipPath>
 </defs>
</svg>
